# startbanner: 30 vertices
v -2308.439453125 424.29998779296875 -633.529296875
vt 1 1
vn 0.408160001039505 0 -0.912909984588623
v -2290.83935546875 424.29998779296875 -625.660400390625
vt 0.800000011920929 1
vn 0.31474000215530396 0 -0.949180006980896
v -2290.83935546875 407.91998291015625 -625.660400390625
vt 0.800000011920929 0
vn 0.31474000215530396 0 -0.949180006980896
v -2290.83935546875 407.91998291015625 -625.660400390625
vt 0.800000011920929 0
vn 0.31474000215530396 0 -0.949180006980896
v -2308.439453125 407.91998291015625 -633.529296875
vt 1 0
vn 0.408160001039505 0 -0.912909984588623
v -2308.439453125 424.29998779296875 -633.529296875
vt 1 1
vn 0.408160001039505 0 -0.912909984588623
v -2290.83935546875 424.29998779296875 -625.660400390625
vt 0.800000011920929 1
vn 0.31474000215530396 0 -0.949180006980896
v -2273.239501953125 424.29998779296875 -621.7258911132812
vt 0.6000000238418579 1
vn 0.1097399964928627 0 -0.9939600229263306
v -2273.239501953125 407.91998291015625 -621.7258911132812
vt 0.6000000238418579 0
vn 0.1097399964928627 0 -0.9939600229263306
v -2273.239501953125 407.91998291015625 -621.7258911132812
vt 0.6000000238418579 0
vn 0.1097399964928627 0 -0.9939600229263306
v -2290.83935546875 407.91998291015625 -625.660400390625
vt 0.800000011920929 0
vn 0.31474000215530396 0 -0.949180006980896
v -2290.83935546875 424.29998779296875 -625.660400390625
vt 0.800000011920929 1
vn 0.31474000215530396 0 -0.949180006980896
v -2273.239501953125 424.29998779296875 -621.7258911132812
vt 0.6000000238418579 1
vn 0.1097399964928627 0 -0.9939600229263306
v -2255.639404296875 424.29998779296875 -621.7258911132812
vt 0.4000000059604645 1
vn -0.1097399964928627 0 -0.9939600229263306
v -2255.639404296875 407.91998291015625 -621.7258911132812
vt 0.4000000059604645 0
vn -0.1097399964928627 0 -0.9939600229263306
v -2255.639404296875 407.91998291015625 -621.7258911132812
vt 0.4000000059604645 0
vn -0.1097399964928627 0 -0.9939600229263306
v -2273.239501953125 407.91998291015625 -621.7258911132812
vt 0.6000000238418579 0
vn 0.1097399964928627 0 -0.9939600229263306
v -2273.239501953125 424.29998779296875 -621.7258911132812
vt 0.6000000238418579 1
vn 0.1097399964928627 0 -0.9939600229263306
v -2255.639404296875 424.29998779296875 -621.7258911132812
vt 0.4000000059604645 1
vn -0.1097399964928627 0 -0.9939600229263306
v -2238.03955078125 424.29998779296875 -625.660400390625
vt 0.20000000298023224 1
vn -0.31474000215530396 0 -0.949180006980896
v -2238.03955078125 407.91998291015625 -625.660400390625
vt 0.20000000298023224 0
vn -0.31474000215530396 0 -0.949180006980896
v -2238.03955078125 407.91998291015625 -625.660400390625
vt 0.20000000298023224 0
vn -0.31474000215530396 0 -0.949180006980896
v -2255.639404296875 407.91998291015625 -621.7258911132812
vt 0.4000000059604645 0
vn -0.1097399964928627 0 -0.9939600229263306
v -2255.639404296875 424.29998779296875 -621.7258911132812
vt 0.4000000059604645 1
vn -0.1097399964928627 0 -0.9939600229263306
v -2238.03955078125 424.29998779296875 -625.660400390625
vt 0.20000000298023224 1
vn -0.31474000215530396 0 -0.949180006980896
v -2220.439453125 424.29998779296875 -633.529296875
vt 0 1
vn -0.408160001039505 0 -0.912909984588623
v -2220.439453125 407.91998291015625 -633.529296875
vt 0 0
vn -0.408160001039505 0 -0.912909984588623
v -2220.439453125 407.91998291015625 -633.529296875
vt 0 0
vn -0.408160001039505 0 -0.912909984588623
v -2238.03955078125 407.91998291015625 -625.660400390625
vt 0.20000000298023224 0
vn -0.31474000215530396 0 -0.949180006980896
v -2238.03955078125 424.29998779296875 -625.660400390625
vt 0.20000000298023224 1
vn -0.31474000215530396 0 -0.949180006980896
f 1/1/1 2/2/2 3/3/3
f 4/4/4 5/5/5 6/6/6
f 7/7/7 8/8/8 9/9/9
f 10/10/10 11/11/11 12/12/12
f 13/13/13 14/14/14 15/15/15
f 16/16/16 17/17/17 18/18/18
f 19/19/19 20/20/20 21/21/21
f 22/22/22 23/23/23 24/24/24
f 25/25/25 26/26/26 27/27/27
f 28/28/28 29/29/29 30/30/30
